<svg width="70" height="66" viewBox="0 0 70 66" fill="none" xmlns="http://www.w3.org/2000/svg">
<g filter="url(#filter0_d_293_186)">
<path d="M56.7449 22.376V35.0023M62.0363 32.7249L56.6863 35.0525V53.4729C56.7349 54.0525 56.5799 54.6304 56.2556 55.0795C55.9312 55.5285 55.464 55.812 54.9567 55.8675C54.4494 55.9231 53.9435 55.7461 53.5504 55.3755C53.1573 55.0049 52.9092 54.4711 52.8606 53.8915C52.8453 53.7525 52.8453 53.6119 52.8606 53.4729V52.4347C44.9604 46.5601 36.0567 42.6728 26.7406 41.0308L27.3123 43.057C27.3983 43.4606 27.35 43.8864 27.1766 44.2516C27.0032 44.6167 26.7173 44.8953 26.3742 45.033C26.2432 45.0574 26.1095 45.0574 25.9784 45.033H25.0697L26.9605 52.2672C27.0458 52.673 26.9953 53.1005 26.8191 53.466C26.6429 53.8315 26.3535 54.1087 26.0078 54.2432C25.8763 54.2614 25.7434 54.2614 25.612 54.2432H19.6756C19.3877 54.248 19.1065 54.1438 18.8759 53.9469C18.6452 53.75 18.478 53.4715 18.4004 53.1547L15.0145 40.1935H11.7898C11.0123 40.1935 10.2667 39.8406 9.71691 39.2125C9.16714 38.5845 8.85829 37.7326 8.85829 36.8443V35.3037C8.12206 35.3263 7.408 35.0147 6.87234 34.4373C6.33667 33.8598 6.02303 33.0635 6.00004 32.2225V25.1055C5.99612 24.2601 6.28534 23.4473 6.80446 22.8449C7.32358 22.2424 8.03038 21.8992 8.77034 21.8904V21.8904V20.4C8.77034 19.5117 9.0792 18.6599 9.62897 18.0318C10.1787 17.4037 10.9244 17.0508 11.7019 17.0508H20.2473C31.9734 17.0508 44.8575 11.24 52.9046 5.07759V3.93887C52.9626 3.40374 53.1898 2.91128 53.5434 2.55419C53.8971 2.1971 54.3528 2 54.8247 2C55.2967 2 55.7524 2.1971 56.1061 2.55419C56.4597 2.91128 56.6869 3.40374 56.7449 3.93887V22.3592L62.095 24.6869C62.4063 24.8279 62.6734 25.0725 62.8616 25.389C63.0498 25.7055 63.1504 26.0793 63.1503 26.462V30.8996C63.155 31.2987 63.05 31.6894 62.8502 32.0168C62.6503 32.3442 62.3657 32.5919 62.0363 32.7249V32.7249Z" stroke="#E20489" stroke-width="4" stroke-linecap="round" stroke-linejoin="round"/>
<path d="M25.8277 28.9387C31.2841 28.9387 36.7411 28.9387 42.1564 28.9387" stroke="#E20489" stroke-width="3" stroke-linecap="round" stroke-linejoin="round"/>
</g>
<defs>
<filter id="filter0_d_293_186" x="0" y="0" width="69.1505" height="65.8777" filterUnits="userSpaceOnUse" color-interpolation-filters="sRGB">
<feFlood flood-opacity="0" result="BackgroundImageFix"/>
<feColorMatrix in="SourceAlpha" type="matrix" values="0 0 0 0 0 0 0 0 0 0 0 0 0 0 0 0 0 0 127 0" result="hardAlpha"/>
<feOffset dy="4"/>
<feGaussianBlur stdDeviation="2"/>
<feComposite in2="hardAlpha" operator="out"/>
<feColorMatrix type="matrix" values="0 0 0 0 0 0 0 0 0 0 0 0 0 0 0 0 0 0 0.25 0"/>
<feBlend mode="normal" in2="BackgroundImageFix" result="effect1_dropShadow_293_186"/>
<feBlend mode="normal" in="SourceGraphic" in2="effect1_dropShadow_293_186" result="shape"/>
</filter>
</defs>
</svg>
